<?xml version="1.0" encoding="UTF-8"?> <svg xmlns="http://www.w3.org/2000/svg" viewBox="0 0 296.203 259.849"><defs><style>.cls-1{fill:#e65303;}.cls-2,.cls-3{fill:#fff;}.cls-3{fill-rule:evenodd;}</style></defs><title>Asset 1</title><g id="Layer_2" data-name="Layer 2"><g id="Layer_1-2" data-name="Layer 1"><path class="cls-1" d="M176.283,259.2l-35.963.645c-50.52.014-70.608.014-100.75-6.638a25.384,25.384,0,0,1-2.634-.666l-3.729-1.2-.274-3.8c-.044-.564-.132-72.226-2.4-100.05C-.888,127.973-4.767,92.274,4.215,71.732c9.531-21.81,24.9-37.121,50.4-38.469,7.476-.4,24.443-.535,31.787,1.231,4.8-7.245,24.389-31.458,52.887-34.2C151.562-.9,163.551,1.659,174.8,6.318c.521.227,1.033.455,1.557.667.99.432,1.934.879,2.868,1.333l.447.22c.44.212.887.432,1.323.66,1.318.681,2.652,1.435,3.97,2.219,7.784,4.63,19.11,18.271,24.7,25.011,7.1-2.542,13.718-7.956,21.186-8.359,25.506-1.348,42.725,7.993,55.213,28.256,17.981,29.2,11.937,65.883-17.257,88.637-2.648,39.128-3.872,78.366-3.3,94.366l.187,5.318-4.5,1.209-3.454.93C222.591,254.851,216.407,257.064,176.283,259.2Z"></path><path class="cls-2" d="M96.108,86.105c11.073,0,19.088,7.773,19.088,18.418,0,10.52-8.176,18.439-19.088,18.439S77.064,115.1,77.064,104.523C77.064,94.222,85.4,86.105,96.108,86.105Zm.055,31.326c6.908,0,12.285-5.538,12.285-12.8,0-7.312-5.124-12.843-12.285-12.843-7.062,0-12.286,5.531-12.286,12.843C83.877,111.79,89.251,117.431,96.163,117.431Z"></path><path class="cls-2" d="M135.62,111.08l10.964-24.367h6.6L136.635,122.86H134.5L117.946,86.713H124.7Z"></path><path class="cls-2" d="M159.686,86.713h23.2v5.781h-16.9V102.5h15.337v5.59H165.986v8.52h16.9V122.4h-23.2Z"></path><path class="cls-2" d="M192.485,86.508h1.989l22.08,23V86.713h6.3v35.949h-1.677l-22.388-22.4V122.4h-6.3Z"></path><path class="cls-2" d="M83.815,206.222H87.9a3.557,3.557,0,0,1,2.508.85,2.126,2.126,0,0,1,.616,1.538v.037a2.345,2.345,0,0,1-1.517,2.219c1.132.337,2.059.989,2.059,2.308v.037c0,1.633-1.388,2.608-3.491,2.608H83.815Zm3.9,4.285c1.3,0,2.212-.593,2.212-1.721v-.022c0-.945-.754-1.561-2.132-1.561H84.881v3.3Zm.392,4.337c1.447,0,2.344-.645,2.344-1.714v-.015c0-1.055-.864-1.648-2.542-1.648H84.881v3.377Z"></path><path class="cls-2" d="M102.742,206.156h1.018l4.37,9.663h-1.165l-1.121-2.535h-5.22l-1.139,2.535H98.368Zm2.677,6.153-2.176-4.893-2.2,4.893Z"></path><path class="cls-2" d="M115.514,206.222H116.6v5.728l5.51-5.728H123.5l-4.109,4.2,4.289,5.4h-1.359l-3.685-4.645L116.6,213.24v2.579h-1.084Z"></path><path class="cls-2" d="M130.859,206.222h6.926v1h-5.85v3.26h5.239v1h-5.239v3.356h5.923v.989h-7Z"></path><path class="cls-2" d="M145.525,206.222h1.084v4.256h5.535v-4.256h1.085v9.6h-1.085v-4.308h-5.535v4.308h-1.084Z"></path><path class="cls-2" d="M161.005,211.057v-.03a4.894,4.894,0,1,1,9.787-.029c.015.015.015.015,0,.029a4.862,4.862,0,0,1-4.912,4.96A4.812,4.812,0,0,1,161.005,211.057Zm8.663,0v-.03a3.819,3.819,0,0,0-3.788-3.97A3.769,3.769,0,0,0,162.129,211v.029a3.774,3.774,0,1,0,7.539.03Z"></path><path class="cls-2" d="M178.419,211.8v-5.582h1.08v5.516c0,2.081,1.1,3.231,2.927,3.231,1.773,0,2.894-1.07,2.894-3.165v-5.582h1.088v5.5c0,2.8-1.6,4.249-4,4.249C180.03,215.972,178.419,214.522,178.419,211.8Z"></path><path class="cls-2" d="M193.829,214.427l.674-.8a4.571,4.571,0,0,0,3.282,1.363c1.289,0,2.146-.7,2.146-1.641v-.022c0-.894-.487-1.4-2.5-1.817-2.2-.484-3.22-1.2-3.22-2.769v-.029c0-1.51,1.326-2.623,3.158-2.623a5.012,5.012,0,0,1,3.366,1.172l-.634.842a4.223,4.223,0,0,0-2.769-1.047c-1.245,0-2.044.688-2.044,1.553v.037c0,.886.5,1.406,2.609,1.86,2.139.469,3.127,1.246,3.127,2.711v.022c0,1.648-1.369,2.718-3.282,2.718A5.618,5.618,0,0,1,193.829,214.427Z"></path><path class="cls-2" d="M208.719,206.222h6.934v1H209.8v3.26h5.238v1H209.8v3.356h5.931v.989h-7.011Z"></path><path class="cls-2" d="M110.76,57.153h6.67v.938H111.8v3.157h5.04V62.2H111.8v3.23h5.7v.953H110.76Z"></path><path class="cls-2" d="M121.628,65.036l.648-.762a4.406,4.406,0,0,0,3.161,1.3c1.242,0,2.059-.659,2.059-1.56v-.036c0-.85-.465-1.341-2.4-1.759-2.128-.454-3.1-1.135-3.1-2.652v-.029c0-1.45,1.278-2.513,3.04-2.513a4.782,4.782,0,0,1,3.235,1.128l-.6.806a4.093,4.093,0,0,0-2.667-1c-1.2,0-1.974.659-1.974,1.487v.022c0,.872.476,1.363,2.505,1.795,2.062.44,3.011,1.194,3.011,2.615V63.9c0,1.583-1.323,2.608-3.147,2.608A5.4,5.4,0,0,1,121.628,65.036Z"></path><path class="cls-2" d="M135.566,58.113h-3.1v-.96h7.252v.96h-3.1v8.271h-1.054Z"></path><path class="cls-2" d="M151.972,58.164l-1.747.542-.246-.85,2.246-.769h.769v9.3h-1.022Z"></path><path class="cls-2" d="M158.009,65.41l.608-.814a3.282,3.282,0,0,0,2.263.989c1.663,0,2.788-1.685,2.744-4.044a2.982,2.982,0,0,1-2.612,1.48,2.94,2.94,0,0,1-3.219-2.857v-.036a3.142,3.142,0,0,1,3.318-3.136,3.267,3.267,0,0,1,2.44.945,4.7,4.7,0,0,1,1.146,3.575v.029c0,2.931-1.56,4.989-3.842,4.989A4.28,4.28,0,0,1,158.009,65.41Zm5.413-5.371V60.01a2.162,2.162,0,0,0-2.344-2.095,2.122,2.122,0,0,0-2.212,2.169v.021a2.058,2.058,0,0,0,2.263,2.015A2.161,2.161,0,0,0,163.422,60.039Z"></path><path class="cls-2" d="M168.822,63.9v-.022a2.5,2.5,0,0,1,1.908-2.271,2.345,2.345,0,0,1-1.579-2.124v-.029c0-1.422,1.458-2.433,3.147-2.433s3.15,1.011,3.15,2.433v.029a2.352,2.352,0,0,1-1.575,2.124,2.5,2.5,0,0,1,1.894,2.257v.022c0,1.567-1.51,2.622-3.469,2.622S168.822,65.446,168.822,63.9Zm5.883-.022v-.029c0-1.026-1.059-1.751-2.407-1.751s-2.418.725-2.418,1.751v.029c0,.931.905,1.722,2.418,1.722S174.705,64.809,174.705,63.878Zm-.294-4.329V59.52c0-.9-.912-1.6-2.113-1.6s-2.114.689-2.114,1.6v.029c0,1,.938,1.685,2.114,1.685S174.411,60.553,174.411,59.549Z"></path><path class="cls-2" d="M181.056,65.6a4.525,4.525,0,0,1-1.158-3.561V62c0-2.806,1.425-5.011,3.836-5.011a4.065,4.065,0,0,1,2.728,1.055l-.608.806a3.206,3.206,0,0,0-2.168-.916c-1.678,0-2.718,1.692-2.707,4.073a3.009,3.009,0,0,1,2.63-1.406,2.953,2.953,0,0,1,3.187,2.835v.022a3.113,3.113,0,0,1-3.315,3.069A3.372,3.372,0,0,1,181.056,65.6Zm4.678-2.095v-.029a2.051,2.051,0,0,0-2.257-1.971,2.162,2.162,0,0,0-2.307,2.007v.029a2.156,2.156,0,0,0,2.326,2.081A2.1,2.1,0,0,0,185.734,63.505Z"></path><path class="cls-3" d="M161.7,147.24c.341-1.729.363-1.743,2.155-1.619,2.2.147,4.406.294,6.607.418.649.044.931.337.931.967,0,.645.011,1.3,0,1.949-.019.776-.381,1.12-1.165,1.165a13.458,13.458,0,0,0-1.736.139,1.135,1.135,0,0,0-1.011,1.091,14.714,14.714,0,0,0-.11,1.517c-.015,7.047.007,14.11-.03,21.157a14.2,14.2,0,0,1-1.652,6.769,10.518,10.518,0,0,1-6.52,5.195,19.477,19.477,0,0,1-11.6.029,6.513,6.513,0,0,1-4.842-4.813,8.138,8.138,0,0,1-.228-1.861,2.884,2.884,0,0,1,2.239-2.967,3.351,3.351,0,0,1,3.769,1.231,3.148,3.148,0,0,1-.29,3.684c-.04.052-.077.11-.212.315.938.25,1.8.535,2.685.7a13.046,13.046,0,0,0,5.872-.213,6.988,6.988,0,0,0,5.073-6.168,10.723,10.723,0,0,0,.121-1.18c.025-1.421.011-2.842.011-4.351a2.217,2.217,0,0,0-.326.271c-2.528,3.055-5.89,3.956-9.678,3.685a9.033,9.033,0,0,1-6.494-3.077,11.63,11.63,0,0,1-2.583-5.912,24.48,24.48,0,0,1,.813-12.044c1.264-3.641,3.539-6.388,7.338-7.531a12.2,12.2,0,0,1,10.443,1.223C161.408,147.1,161.558,147.152,161.7,147.24Zm.077,9.085c0-1.392-.025-2.784.019-4.184a1.024,1.024,0,0,0-.52-.959,9.373,9.373,0,0,0-4.773-1.546,6.652,6.652,0,0,0-6.374,2.923,12.028,12.028,0,0,0-1.85,5.333,17.87,17.87,0,0,0,.62,8.059c1.659,4.952,6.985,4.872,9.564,2.689a8.846,8.846,0,0,0,2.6-4.425A24.75,24.75,0,0,0,161.781,156.325Z"></path><path class="cls-3" d="M68.251,170.244A25.953,25.953,0,0,1,66.02,172.3a11.4,11.4,0,0,1-8.183,2.03,9.119,9.119,0,0,1-6.143-2.9,11.383,11.383,0,0,1-2.663-5.663,25.049,25.049,0,0,1,.279-10.938,12.553,12.553,0,0,1,5.007-7.707,12,12,0,0,1,7-1.919,11.82,11.82,0,0,1,6.213,1.758c.176.1.352.19.6.344,0-2.124.008-4.168,0-6.205a11.138,11.138,0,0,0-.069-1.743c-.118-.916-.531-1.239-1.443-1.26-.539-.022-1.074,0-1.6-.015-.857-.022-1.147-.3-1.169-1.136-.033-.666-.007-1.347-.011-2.014,0-.572.22-.938.832-.974.967-.044,1.912-.11,2.861-.162,1.586-.095,3.168-.176,4.751-.263a1.134,1.134,0,0,1,1.384,1.106,6.526,6.526,0,0,1,.055.967v31.311a10.931,10.931,0,0,0,.029,1.238,1.6,1.6,0,0,0,2.048,1.59c.432-.066.868-.139,1.3-.213.37-.058.59.095.582.5,0,.857,0,1.714,0,2.578a.977.977,0,0,1-.8.953,10.011,10.011,0,0,1-5.627.117,3.957,3.957,0,0,1-2.846-2.967C68.372,170.544,68.3,170.376,68.251,170.244Zm-.114-14.22c0-1.216-.033-2.425.022-3.634a1.32,1.32,0,0,0-.751-1.333,9.639,9.639,0,0,0-4.6-1.414A6.674,6.674,0,0,0,56.02,153.2a15.149,15.149,0,0,0-1.626,7.81,14.793,14.793,0,0,0,.9,5.26c1.733,4.535,6.623,4.432,9.118,2.644a8.561,8.561,0,0,0,3.04-4.937A25.931,25.931,0,0,0,68.137,156.024Z"></path><path class="cls-3" d="M183.122,149.475a8.9,8.9,0,0,1,3.33-3.077,11.741,11.741,0,0,1,9.838-.542c2.674,1.077,3.905,3.326,4.308,6.066a19.866,19.866,0,0,1,.179,2.842c.008,4.059,0,8.11,0,12.161a9.439,9.439,0,0,0,.114,1.4,1.528,1.528,0,0,0,1.945,1.443c.468-.066.916-.161,1.377-.235.41-.066.6.132.586.557-.011.813.055,1.627-.029,2.44a1.238,1.238,0,0,1-.593.908,8.727,8.727,0,0,1-6.587-.073,4.131,4.131,0,0,1-2.282-3.509,18.432,18.432,0,0,1-.106-2.1c-.018-4.425,0-8.85-.047-13.267-.03-3.07-2.074-4.887-5.136-4.7-3.143.175-5.22,1.971-6.168,5.3a19.6,19.6,0,0,0-.733,5.634c0,2.271-.008,4.52,0,6.783,0,1.715.436,2.154,2.135,2.169.535,0,1.07-.007,1.6.007a.666.666,0,0,1,.754.777c-.011.747,0,1.494,0,2.234,0,.828-.191,1.026-1.018,1.026-4.056.007-8.11,0-12.155,0h-.56a.794.794,0,0,1-.938-.923c.019-.74.026-1.487-.007-2.235-.022-.637.282-.886.883-.886.648,0,1.3.022,1.949-.015,1.121-.073,1.523-.454,1.7-1.553a5.264,5.264,0,0,0,.066-.835V140.383c0-.161,0-.329,0-.483-.055-1.392-.439-1.766-1.813-1.824-.483-.015-.978-.037-1.465-.088-.777-.059-.986-.293-1.007-1.1-.019-.6-.015-1.209-.011-1.817.014-.887.161-1.077,1.04-1.128,1.721-.125,3.432-.213,5.154-.308.794-.059,1.586-.125,2.37-.139.89-.022,1.128.2,1.241,1.055a7.552,7.552,0,0,1,.073,1.033c.008,4.381.008,8.747.008,13.135Z"></path><path class="cls-3" d="M86.485,162.163c.3,4.755,2.528,7.07,6.3,7.524a19.573,19.573,0,0,0,10.077-1.516c1.593-.66,1.689-.586,1.689,1.143a6.576,6.576,0,0,0,0,.769,2.12,2.12,0,0,1-1.649,2.5,22.764,22.764,0,0,1-5.875,1.355,20.417,20.417,0,0,1-7.942-.542,10.7,10.7,0,0,1-7.681-7.582,19.778,19.778,0,0,1,.894-14.337,10.73,10.73,0,0,1,8.872-6.249,15.772,15.772,0,0,1,8.406,1,7.868,7.868,0,0,1,4.9,7.325,8.166,8.166,0,0,1-7.1,9.129,23.031,23.031,0,0,1-10.095-.33C87.035,162.288,86.789,162.229,86.485,162.163Zm-.1-3.912a23.072,23.072,0,0,0,7.909.857,5.707,5.707,0,0,0,3.567-1.37c1.59-1.5,1.715-3.413,1.22-5.413a3.542,3.542,0,0,0-2.615-2.726,13.942,13.942,0,0,0-3.557-.454,5.478,5.478,0,0,0-5.055,3.121A14.164,14.164,0,0,0,86.386,158.251Z"></path><path class="cls-3" d="M242.455,149.607a10.394,10.394,0,0,0-7.073-.33,3.1,3.1,0,0,0-2.3,2.857,3,3,0,0,0,1.711,3.165c1.59.711,3.278,1.216,4.945,1.795,1.56.549,3.2.952,4.714,1.634a6.978,6.978,0,0,1,4.407,6.395c.146,2.674-.4,5.084-2.491,6.923a9.416,9.416,0,0,1-4.8,2.066,20.915,20.915,0,0,1-9.729-.542,7.708,7.708,0,0,1-3.7-2.271,5.289,5.289,0,0,1-1.223-4.674,3.151,3.151,0,0,1,3.941-2.389,3.036,3.036,0,0,1,2.252,3.686,13.4,13.4,0,0,1-.556,1.662,8.375,8.375,0,0,0,3.655,1.011,9.894,9.894,0,0,0,5.451-.695,3.483,3.483,0,0,0,1.971-3.275,3.4,3.4,0,0,0-1.769-3.187,20.533,20.533,0,0,0-5.36-1.868,16.657,16.657,0,0,1-5.919-2.491,6.726,6.726,0,0,1-2.6-4.586,9.571,9.571,0,0,1,.249-4.139,6.482,6.482,0,0,1,4.33-4.4,17.277,17.277,0,0,1,12.4.418,5.271,5.271,0,0,1,3.322,5.523,3.151,3.151,0,1,1-6.249-.725C242.125,150.669,242.3,150.193,242.455,149.607Z"></path><path class="cls-3" d="M117.943,151.182v15.56c0,.425.022.85.059,1.26.106,1.18.542,1.6,1.725,1.663.644.029,1.3.015,1.949.015a.722.722,0,0,1,.816.813c.011.769.011,1.546,0,2.308a.819.819,0,0,1-.938.93q-6.395-.011-12.787,0c-.674,0-.978-.286-.96-.967.019-.747.019-1.487,0-2.227-.025-.623.275-.857.836-.857.626,0,1.263.007,1.89-.007,1.234-.045,1.721-.535,1.791-1.751.022-.359.044-.74.044-1.114V140.339c-.011-.329-.015-.652-.055-.974a1.284,1.284,0,0,0-1.326-1.26c-.575-.029-1.161-.007-1.744-.022-.861-.022-1.117-.293-1.131-1.136-.012-.659.036-1.311-.012-1.955-.058-.755.326-1.019.979-1.056.86-.043,1.721-.087,2.582-.139,1.648-.088,3.3-.183,4.949-.263.868-.044,1.278.285,1.3,1.157.037,1.868.037,3.729.037,5.583Z"></path><path class="cls-3" d="M210.29,150.354c-1.077,0-2.036.022-2.985-.007-.989-.037-1.128-.176-1.147-1.15-.01-.748.008-1.5.026-2.235a.821.821,0,0,1,.923-.894c.883,0,1.769-.022,2.656.015a.624.624,0,0,0,.721-.535c.612-1.978,1.268-3.934,1.894-5.89.374-1.143.575-1.3,1.788-1.384a4.081,4.081,0,0,1,.424-.015c1.188-.008,1.268.073,1.268,1.245v6.564h2.831c1.213,0,2.422-.007,3.638,0,.831.015,1.04.227,1.055,1.033,0,.652,0,1.312,0,1.956-.011,1-.271,1.282-1.29,1.3-1.655.022-3.311,0-4.963,0h-1.238c-.015.286-.029.513-.029.74,0,4.352-.019,8.718.014,13.069a15.846,15.846,0,0,0,.261,2.894,2.927,2.927,0,0,0,3.164,2.63,10.234,10.234,0,0,0,4.121-.505c.513-.2.773.029.78.535.015.857.022,1.721,0,2.578a1.169,1.169,0,0,1-1,1.114,18.566,18.566,0,0,1-2.656.527,15.163,15.163,0,0,1-5.27-.256,6.107,6.107,0,0,1-4.729-5.326,20.6,20.6,0,0,1-.253-3.055c-.022-4.674,0-9.363,0-14.029Z"></path><path class="cls-3" d="M134.968,157.226v9.7c0,2.389.363,2.769,2.733,2.748,2.165-.008,1.839.087,1.857,1.86v1.041c-.011.959-.19,1.15-1.132,1.15-3.2.007-6.384,0-9.571,0-1,0-1.993.022-3.007,0-.751,0-.956-.213-.96-.945s.022-1.5-.015-2.235c-.029-.652.293-.871.887-.864s1.157.007,1.743-.007c1.33-.037,1.85-.513,1.861-1.817q.029-8.034,0-16.066c0-1.15-.326-1.487-1.458-1.612-.6-.051-1.212-.037-1.817-.066a.865.865,0,0,1-.941-.967c.015-.718.026-1.45,0-2.161a.771.771,0,0,1,.824-.9c2.579-.154,5.154-.315,7.726-.44.934-.044,1.256.264,1.256,1.253.018,3.436,0,6.894,0,10.33Z"></path><path class="cls-3" d="M135.653,137.028a3.773,3.773,0,0,1-3.912,3.846,3.338,3.338,0,0,1-3.373-3.626,3.851,3.851,0,0,1,3.8-4.03A3.582,3.582,0,0,1,135.653,137.028Z"></path><path class="cls-1" d="M281.356,231.146V233h-3.593v9.378h-2.234V233h-3.593v-1.857ZM293.5,242.381l-.414-6.609c-.042-.87-.042-1.941-.08-3.137h-.125c-.289.987-.619,2.309-.95,3.346l-2.024,6.232h-2.313l-2.025-6.4c-.2-.87-.535-2.192-.786-3.179h-.121c0,1.029-.042,2.108-.084,3.137l-.414,6.609h-2.146l.824-11.235h3.347l1.94,5.5c.251.862.456,1.69.745,2.853h.042c.288-1.038.535-1.991.786-2.811l1.941-5.538h3.22l.866,11.235Z"></path></g></g></svg> 